<svg width="160" height="110" viewBox="0 0 160 110" fill="none" xmlns="http://www.w3.org/2000/svg">
  <ellipse cx="80" cy="102" rx="55" ry="6" fill="rgba(245,158,11,0.10)"/>
  <!-- pricing cards -->
  <!-- free card -->
  <rect x="14" y="22" width="38" height="68" rx="6" fill="#0f1628" stroke="#374151" stroke-width="1.5"/>
  <text x="33" y="36" text-anchor="middle" font-size="6.5" fill="#6b7280" font-family="sans-serif" font-weight="600">FREE</text>
  <text x="33" y="48" text-anchor="middle" font-size="11" fill="#9ca3af" font-family="sans-serif" font-weight="800">$0</text>
  <line x1="18" y1="54" x2="48" y2="54" stroke="#1e2a5e" stroke-width="1"/>
  <text x="33" y="63" text-anchor="middle" font-size="5.5" fill="#6b7280" font-family="sans-serif">1 pipeline</text>
  <text x="33" y="72" text-anchor="middle" font-size="5.5" fill="#6b7280" font-family="sans-serif">5 posts/mo</text>
  <text x="33" y="81" text-anchor="middle" font-size="5.5" fill="#374151" font-family="sans-serif">No API</text>
  <!-- pro card (highlighted) -->
  <rect x="56" y="14" width="48" height="78" rx="7" fill="#0f1628" stroke="#f59e0b" stroke-width="2"/>
  <rect x="56" y="14" width="48" height="22" rx="7" fill="#1a1205"/>
  <rect x="56" y="28" width="48" height="8" fill="#1a1205"/>
  <text x="80" y="25" text-anchor="middle" font-size="6" fill="#f59e0b" font-family="sans-serif" font-weight="700">⭐ PRO</text>
  <text x="80" y="42" text-anchor="middle" font-size="14" fill="#f59e0b" font-family="sans-serif" font-weight="800">$29</text>
  <text x="80" y="50" text-anchor="middle" font-size="6" fill="#78716c" font-family="sans-serif">/month</text>
  <line x1="61" y1="54" x2="99" y2="54" stroke="#292524" stroke-width="1"/>
  <text x="80" y="63" text-anchor="middle" font-size="5.5" fill="#d6d3d1" font-family="sans-serif">Unlimited</text>
  <text x="80" y="72" text-anchor="middle" font-size="5.5" fill="#d6d3d1" font-family="sans-serif">All agents</text>
  <text x="80" y="81" text-anchor="middle" font-size="5.5" fill="#d6d3d1" font-family="sans-serif">Analytics</text>
  <rect x="62" y="84" width="36" height="8" rx="4" fill="#f59e0b"/>
  <text x="80" y="90" text-anchor="middle" font-size="6" fill="#0f1628" font-family="sans-serif" font-weight="700">Get Pro</text>
  <!-- enterprise card -->
  <rect x="108" y="22" width="38" height="68" rx="6" fill="#0f1628" stroke="#6366f1" stroke-width="1.5"/>
  <text x="127" y="36" text-anchor="middle" font-size="5.5" fill="#818cf8" font-family="sans-serif" font-weight="600">ENTERPRISE</text>
  <text x="127" y="48" text-anchor="middle" font-size="10" fill="#818cf8" font-family="sans-serif" font-weight="800">Custom</text>
  <line x1="112" y1="54" x2="142" y2="54" stroke="#1e2a5e" stroke-width="1"/>
  <text x="127" y="63" text-anchor="middle" font-size="5.5" fill="#6b7280" font-family="sans-serif">White-label</text>
  <text x="127" y="72" text-anchor="middle" font-size="5.5" fill="#6b7280" font-family="sans-serif">SLA 99.9%</text>
  <text x="127" y="81" text-anchor="middle" font-size="5.5" fill="#6b7280" font-family="sans-serif">SSO + API</text>
</svg>
